<svg version="1.1" viewBox="0.0 0.0 1000.0 1000.0" fill="none" stroke="none" stroke-linecap="square" stroke-miterlimit="10" xmlns:xlink="http://www.w3.org/1999/xlink" xmlns="http://www.w3.org/2000/svg"><clipPath id="p.0"><path d="m0 0l1000.0 0l0 1000.0l-1000.0 0l0 -1000.0z" clip-rule="nonzero"/></clipPath><g clip-path="url(#p.0)"><path fill="#000000" fill-opacity="0.0" d="m0 0l1000.0 0l0 1000.0l-1000.0 0z" fill-rule="evenodd"/><path fill="#cacaca" d="m154.4093 730.8495c-35.732033 1.9084473 -145.13463 89.062195 -151.1457 103.93683c-6.0110736 14.874634 105.355286 -24.419983 115.079254 -14.688965c9.723961 9.730957 -61.73698 67.20184 -56.735474 73.07471c5.001503 5.872925 70.89295 -44.977844 86.7445 -37.83722c15.851547 7.140625 -3.185852 86.01416 8.364792 80.68097c11.550644 -5.333191 61.323654 -78.48572 60.939087 -112.680115c-0.38456726 -34.194397 -27.514435 -94.39465 -63.24646 -92.486206z" fill-rule="evenodd"/><path stroke="#cacaca" stroke-width="1.0" stroke-linejoin="round" stroke-linecap="butt" d="m154.4093 730.8495c-35.732033 1.9084473 -145.13463 89.062195 -151.1457 103.93683c-6.0110736 14.874634 105.355286 -24.419983 115.079254 -14.688965c9.723961 9.730957 -61.73698 67.20184 -56.735474 73.07471c5.001503 5.872925 70.89295 -44.977844 86.7445 -37.83722c15.851547 7.140625 -3.185852 86.01416 8.364792 80.68097c11.550644 -5.333191 61.323654 -78.48572 60.939087 -112.680115c-0.38456726 -34.194397 -27.514435 -94.39465 -63.24646 -92.486206z" fill-rule="evenodd"/><path fill="#304cb2" d="m99.334335 638.10205l0 0c-27.637985 -30.035645 -24.473007 -75.384766 7.0691833 -101.2901l486.94104 -399.92072c15.147034 -12.440178 34.946167 -18.64109 55.041626 -17.238594c20.09552 1.4024887 38.84131 10.29351 52.113525 24.71711l200.16595 217.53062c27.638 30.035614 24.473022 75.384735 -7.069153 101.29007l-486.941 399.92072c-31.542175 25.905396 -79.51718 22.557129 -107.15518 -7.4785156z" fill-rule="evenodd"/><path stroke="#cacaca" stroke-width="8.0" stroke-linejoin="round" stroke-linecap="butt" d="m99.334335 638.10205l0 0c-27.637985 -30.035645 -24.473007 -75.384766 7.0691833 -101.2901l486.94104 -399.92072c15.147034 -12.440178 34.946167 -18.64109 55.041626 -17.238594c20.09552 1.4024887 38.84131 10.29351 52.113525 24.71711l200.16595 217.53062c27.638 30.035614 24.473022 75.384735 -7.069153 101.29007l-486.941 399.92072c-31.542175 25.905396 -79.51718 22.557129 -107.15518 -7.4785156z" fill-rule="evenodd"/><path fill="#cacaca" d="m775.8665 197.11974c0.9039917 -35.52269 85.798645 -139.50433 100.65039 -144.62462c14.851807 -5.1202927 -21.646912 103.633286 -11.539673 113.90288c10.107178 10.269577 66.10791 -57.61853 72.183105 -52.28537c6.0751343 5.333168 -43.39862 68.05611 -35.732178 84.28433c7.666443 16.228241 86.78656 1.8793488 81.73071 13.085068c-5.055847 11.205719 -77.51703 56.54297 -112.065735 54.14926c-34.548706 -2.3937073 -96.130615 -32.988846 -95.22662 -68.51155z" fill-rule="evenodd"/><path stroke="#cacaca" stroke-width="1.0" stroke-linejoin="round" stroke-linecap="butt" d="m775.8665 197.11974c0.9039917 -35.52269 85.798645 -139.50433 100.65039 -144.62462c14.851807 -5.1202927 -21.646912 103.633286 -11.539673 113.90288c10.107178 10.269577 66.10791 -57.61853 72.183105 -52.28537c6.0751343 5.333168 -43.39862 68.05611 -35.732178 84.28433c7.666443 16.228241 86.78656 1.8793488 81.73071 13.085068c-5.055847 11.205719 -77.51703 56.54297 -112.065735 54.14926c-34.548706 -2.3937073 -96.130615 -32.988846 -95.22662 -68.51155z" fill-rule="evenodd"/><path fill="#c22b27" d="m722.50507 603.18445l-252.4112 205.98999c27.880554 -22.753052 -16.439362 -114.38434 -98.99133 -204.66425c-82.55197 -90.27985 -172.07524 -145.02121 -199.95581 -122.26819l252.4112 -205.98996l0 0c27.880554 -22.753036 117.40381 31.988312 199.95581 122.26819c82.55194 90.27991 126.87189 181.91116 98.99133 204.66422z" fill-rule="evenodd"/><path stroke="#cacaca" stroke-width="8.0" stroke-linejoin="round" stroke-linecap="butt" d="m722.50507 603.18445l-252.4112 205.98999c27.880554 -22.753052 -16.439362 -114.38434 -98.99133 -204.66425c-82.55197 -90.27985 -172.07524 -145.02121 -199.95581 -122.26819l252.4112 -205.98996l0 0c27.880554 -22.753036 117.40381 31.988312 199.95581 122.26819c82.55194 90.27991 126.87189 181.91116 98.99133 204.66422z" fill-rule="evenodd"/><path fill="#ffbf27" d="m816.9105 529.2424l-252.41138 205.98993c27.880615 -22.75299 -16.940735 -114.932556 -100.111176 -205.88873c-83.17047 -90.95618 -173.19513 -146.24579 -201.07571 -123.49277l252.41138 -205.9899l0 0c27.880554 -22.753021 117.90527 32.536575 201.07568 123.49277c83.17047 90.95618 127.99182 183.13571 100.111206 205.8887z" fill-rule="evenodd"/><path stroke="#cacaca" stroke-width="8.0" stroke-linejoin="round" stroke-linecap="butt" d="m816.9105 529.2424l-252.41138 205.98993c27.880615 -22.75299 -16.940735 -114.932556 -100.111176 -205.88873c-83.17047 -90.95618 -173.19513 -146.24579 -201.07571 -123.49277l252.41138 -205.9899l0 0c27.880554 -22.753021 117.90527 32.536575 201.07568 123.49277c83.17047 90.95618 127.99182 183.13571 100.111206 205.8887z" fill-rule="evenodd"/></g></svg>